<svg xmlns="http://www.w3.org/2000/svg" viewBox="0 0 129.78 151.42"><defs><style>.cls-1{fill:#fff;}</style></defs><g id="Camada_2" data-name="Camada 2"><g id="Camada_1-2" data-name="Camada 1"><g id="Camada_2-2" data-name="Camada 2"><g id="Camada_1-2-2" data-name="Camada 1-2"><path class="cls-1" d="M78.23,24.85v8.29a39.48,39.48,0,0,1,8.85,69.93A7.47,7.47,0,0,1,75.5,96.78v-10H54.28v9.86a7.48,7.48,0,0,1-11.66,6.24,39.46,39.46,0,0,1,8.93-69.61V24.92A47.38,47.38,0,0,0,17.64,70.34c0,25.8,24.54,59.75,38.3,76.75a11.72,11.72,0,0,0,16.49,1.7,11.38,11.38,0,0,0,1.7-1.7c13.76-16.88,38.24-50.59,38.24-76.79A47.39,47.39,0,0,0,78.23,24.85Z"/><path class="cls-1" d="M69.92,139.44a5.27,5.27,0,0,1-5,3.68h0a5.27,5.27,0,0,1-5-3.68l-5.58-7.53V23.14a42.08,42.08,0,0,1,1.21-10.06A40.18,40.18,0,0,1,59,3.78h0a6.45,6.45,0,0,1,11.73,0h0a40.24,40.24,0,0,1,3.53,9.3A42.11,42.11,0,0,1,75.5,23.14V131.91Z"/><path class="cls-1" d="M72.57,38.61l53.84,41.14a8.57,8.57,0,0,1,3.37,6.82v4.11L72.57,73.33Z"/><path class="cls-1" d="M57.22,38.61,3.37,79.75A8.61,8.61,0,0,0,0,86.57v4.11L57.22,73.33Z"/><path class="cls-1" d="M9.68,83.52h0a3.64,3.64,0,0,0,3.65-3.65h0V73.22a3.65,3.65,0,0,0-3.65-3.65h0A3.66,3.66,0,0,0,6,73.19v6.68a3.64,3.64,0,0,0,3.65,3.65Z"/><path class="cls-1" d="M120.11,83.52h0a3.64,3.64,0,0,0,3.65-3.65h0V73.22a3.65,3.65,0,0,0-3.65-3.65h0a3.65,3.65,0,0,0-3.65,3.63v6.67a3.63,3.63,0,0,0,3.63,3.65Z"/><path class="cls-1" d="M40.89,60.09h0a3.66,3.66,0,0,0,3.65-3.65V49.78a3.67,3.67,0,0,0-3.65-3.65h0a3.65,3.65,0,0,0-3.65,3.65h0v6.66a3.64,3.64,0,0,0,3.65,3.65Z"/><path class="cls-1" d="M88.9,60.09h0a3.66,3.66,0,0,0,3.65-3.65V49.78a3.67,3.67,0,0,0-3.65-3.65h0a3.66,3.66,0,0,0-3.66,3.65v6.66A3.66,3.66,0,0,0,88.9,60.09Z"/></g></g></g></g></svg>