<svg xmlns="http://www.w3.org/2000/svg" viewBox="0 0 537.17 153.65"><defs><style>.cls-1{fill:#36a9e1;}</style></defs><g id="Camada_2" data-name="Camada 2"><g id="Camada_1-2" data-name="Camada 1"><path class="cls-1" d="M78.23,24.85v8.29a39.48,39.48,0,0,1,8.85,69.93A7.48,7.48,0,0,1,75.5,96.78v-10H54.28v9.86a7.48,7.48,0,0,1-11.66,6.24,39.46,39.46,0,0,1,8.93-69.61V24.92A47.38,47.38,0,0,0,17.64,70.34c0,25.8,24.54,59.75,38.3,76.75a11.72,11.72,0,0,0,18.19,0c13.76-16.88,38.24-50.59,38.24-76.79A47.39,47.39,0,0,0,78.23,24.85Z"/><path class="cls-1" d="M69.92,139.44a5.28,5.28,0,0,1-5,3.68h0a5.28,5.28,0,0,1-5-3.68l-5.58-7.53V23.14a42.23,42.23,0,0,1,1.21-10.06A40.14,40.14,0,0,1,59,3.78h0a6.44,6.44,0,0,1,11.73,0h0a40.12,40.12,0,0,1,3.53,9.3A42.23,42.23,0,0,1,75.5,23.14V131.91Z"/><path class="cls-1" d="M72.57,38.61l53.84,41.14a8.57,8.57,0,0,1,3.37,6.82v4.11L72.57,73.33Z"/><path class="cls-1" d="M57.22,38.61,3.37,79.75A8.6,8.6,0,0,0,0,86.57v4.11L57.22,73.33Z"/><path class="cls-1" d="M9.68,83.52h0a3.65,3.65,0,0,0,3.65-3.65V73.22a3.65,3.65,0,0,0-3.65-3.65h0A3.65,3.65,0,0,0,6,73.22v6.65A3.65,3.65,0,0,0,9.68,83.52Z"/><path class="cls-1" d="M120.11,83.52h0a3.65,3.65,0,0,0,3.65-3.65V73.22a3.65,3.65,0,0,0-3.65-3.65h0a3.64,3.64,0,0,0-3.65,3.65v6.65A3.64,3.64,0,0,0,120.11,83.52Z"/><path class="cls-1" d="M40.89,60.09h0a3.66,3.66,0,0,0,3.65-3.65V49.78a3.66,3.66,0,0,0-3.65-3.65h0a3.65,3.65,0,0,0-3.65,3.65v6.66A3.65,3.65,0,0,0,40.89,60.09Z"/><path class="cls-1" d="M88.9,60.09h0a3.66,3.66,0,0,0,3.65-3.65V49.78a3.66,3.66,0,0,0-3.65-3.65h0a3.66,3.66,0,0,0-3.66,3.65v6.66A3.66,3.66,0,0,0,88.9,60.09Z"/><path class="cls-1" d="M196.14,17.93a44.75,44.75,0,0,0-13.89-4.41V55.44H170.44V13.52a42.82,42.82,0,0,0-14,4.41L153,8.37a50,50,0,0,1,46.71.07Z"/><path class="cls-1" d="M244.41,30.19V55.44h-11.5V33.55c0-5.08-3-8.22-7.92-8.22-5.76.08-9.27,4.41-9.27,10.31v19.8H204.21V0h11.51V22.34c2.84-5,7.62-7.47,13.9-7.55C238.66,14.79,244.41,20.77,244.41,30.19Z"/><path class="cls-1" d="M283.72,41.69l6.57,6a22.75,22.75,0,0,1-18.08,8.22c-12.78,0-21.37-8.22-21.37-20.47s8-20.48,20.62-20.55c11.66-.08,19.36,7,19.8,18.53l-27.79,7.32A10,10,0,0,0,273,46.93C276.92,46.93,280.65,45.13,283.72,41.69Zm-21.37-7.84L280,29.07c-1.27-3.89-4-5.68-7.92-5.68C266.38,23.39,262.72,27.05,262.35,33.85Z"/><path class="cls-1" d="M210.49,153.65c-8.22,0-15.39-4-18.53-9.71-3.06,5.68-10.16,9.71-18.46,9.71-12,0-20.55-8.59-20.55-20.7V100.82h11.81V133c0,6.13,4.41,10.39,10.61,10.39S186,139.08,186.06,133V100.82h11.8V133c0,6.13,4.49,10.39,10.84,10.39S219,139.08,219,133V100.82h11.8V133C230.81,145.06,222.45,153.65,210.49,153.65Z"/><path class="cls-1" d="M280.73,112.93v40.2H269.3v-5.76a14.9,14.9,0,0,1-12.63,6.21c-11.43,0-19-8.3-19-20.7,0-12.18,7.4-20.33,18.61-20.4,5.67,0,10.08,2.24,13,6.28v-5.83ZM269.3,134.52v-2.69c-.6-5.83-4.49-9.79-9.94-9.79-6,0-10.09,4.64-10.16,11.14s4.11,11.13,10.16,11.13C264.81,144.31,268.7,140.35,269.3,134.52Z"/><path class="cls-1" d="M332,127.87v25.26H320.48v-21.9c0-5.08-3-8.22-7.92-8.22-5.75.08-9.19,4.41-9.19,10.32v19.8H291.86v-40.2h11.51v7c2.84-5,7.62-7.4,13.9-7.47C326.23,112.48,332,118.46,332,127.87Z"/><path class="cls-1" d="M381.6,97.68v55.45H370.17v-5.9c-2.84,4.1-7.17,6.35-12.7,6.35-11.43,0-19-8.3-19-20.7s7.47-20.4,18.68-20.4c5.68,0,10.09,2.24,13,6.35V97.68Zm-11.43,35.5c0-6.58-4.11-11.14-10-11.14s-10.09,4.64-10.16,11.14,4.1,11.13,10.16,11.13C366.06,144.31,370.17,139.75,370.17,133.18Z"/><path class="cls-1" d="M422.55,139.38l6.58,6A22.8,22.8,0,0,1,411,153.58c-12.77,0-21.37-8.22-21.37-20.48,0-12.1,8-20.47,20.63-20.55,11.65-.07,19.35,7,19.8,18.54l-27.8,7.32a10.07,10.07,0,0,0,9.57,6.2A14.28,14.28,0,0,0,422.55,139.38Zm-21.37-7.85,17.63-4.78c-1.27-3.88-4-5.68-7.92-5.68C405.22,121.07,401.55,124.73,401.18,131.53Z"/><path class="cls-1" d="M462,112.48v10.83c-8.22-.74-13.3,3.67-13.3,10.47v19.35H437.2v-40.2h11.5v7.25A14.62,14.62,0,0,1,462,112.48Z"/><path class="cls-1" d="M497.72,139.38l6.58,6a22.82,22.82,0,0,1-18.09,8.22c-12.77,0-21.37-8.22-21.37-20.48,0-12.1,8-20.47,20.63-20.55,11.65-.07,19.35,7,19.8,18.54l-27.8,7.32a10.06,10.06,0,0,0,9.56,6.2A14.28,14.28,0,0,0,497.72,139.38Zm-21.37-7.85L494,126.75c-1.27-3.88-4-5.68-7.92-5.68C480.38,121.07,476.72,124.73,476.35,131.53Z"/><path class="cls-1" d="M537.17,112.48v10.83c-8.22-.74-13.3,3.67-13.3,10.47v19.35H512.36v-40.2h11.51v7.25A14.61,14.61,0,0,1,537.17,112.48Z"/></g></g></svg>